<?xml version="1.0" standalone="no"?><!DOCTYPE svg PUBLIC "-//W3C//DTD SVG 1.1//EN" "http://www.w3.org/Graphics/SVG/1.1/DTD/svg11.dtd"><svg t="1699404245763" class="icon" viewBox="0 0 1024 1024" version="1.1" xmlns="http://www.w3.org/2000/svg" p-id="8820" xmlns:xlink="http://www.w3.org/1999/xlink" width="32" height="32"><path d="M742.4 128c84.48 0 153.6 69.12 153.6 153.6v460.8c0 84.48-69.12 153.6-153.6 153.6H281.6c-84.48 0-153.6-69.12-153.6-153.6V281.6c0-84.48 69.12-153.6 153.6-153.6h460.8m0-38.4H281.6C176 89.6 89.6 176 89.6 281.6v460.8c0 105.6 86.4 192 192 192h460.8c105.6 0 192-86.4 192-192V281.6c0-105.6-86.4-192-192-192z" fill="#2c2c2c" p-id="8821"></path><path d="M492.8 281.6h38.4v422.4h-38.4z" fill="#2c2c2c" p-id="8822"></path><path d="M300.8 473.6h422.4v38.4H300.8z" fill="#2c2c2c" p-id="8823"></path></svg>